<svg width="76.3mm" height="123.9mm" version="1.1" viewBox="0 0 76.3 123.9" xmlns="http://www.w3.org/2000/svg">
 <defs>
  <filter id="filter1181" x="-1.704e-5" y="-2.199e-5" width="1" height="1" color-interpolation-filters="sRGB">
   <feGaussianBlur stdDeviation="0.00023906692"/>
  </filter>
 </defs>
 <g transform="translate(-104.3 -41.42)" filter="url(#filter1181)">
  <path d="m134.7 160.8 14.77-1.173a1.514 1.639 42.73 0 1 1.573 1.453v1.002a1.514 1.639 42.73 0 1-1.573 1.703l-14.77 1.173a1.514 1.639 42.73 0 1-1.573-1.453v-1.002a1.514 1.639 42.73 0 1 1.573-1.703zm-7.779-5.63 30.33-2.408a1.514 1.639 42.73 0 1 1.573 1.453v1.002a1.514 1.639 42.73 0 1-1.573 1.703l-30.33 2.408a1.514 1.639 42.73 0 1-1.573-1.453v-1.002a1.514 1.639 42.73 0 1 1.573-1.703zm0-6.865 30.33-2.408a1.514 1.639 42.73 0 1 1.573 1.453v1.002a1.514 1.639 42.73 0 1-1.573 1.703l-30.33 2.408a1.514 1.639 42.73 0 1-1.573-1.453v-1.002a1.514 1.639 42.73 0 1 1.573-1.703zm0-6.865 30.33-2.408a1.514 1.639 42.73 0 1 1.573 1.453v1.002a1.514 1.639 42.73 0 1-1.573 1.703l-30.33 2.408a1.514 1.639 42.73 0 1-1.573-1.453v-1.002a1.514 1.639 42.73 0 1 1.573-1.703z"/>
 </g>
 <g transform="translate(-104.3 -41.42)">
  <g transform="matrix(.9941 0 0 .9941 .8417 .6109)" stroke="#000" stroke-width=".25">
   <path d="m147.4 130.2-7.699-9.232 12.05-3.767 7.105 10.26 0.0279 6.452" fill="none"/>
   <path d="m147.4 130.2-11.23 3.271 3.533-12.5-5.599-12.03 0.1024-9.671-12.42 3.799-10-3.673-0.0147-7.294 13.25 0.07757 9.183 7.091" fill="none"/>
   <path d="m136.2 133.5-9.62-3.208 0.5121-11.49-7.452-5.429 2.179-10.28" fill="none"/>
   <path d="m127 118.8 7.042-9.836 10.47-4.032-10.36-5.639" fill="none"/>
   <path d="m151.7 117.2 12.88-1.927-2.161-11.75 10.85-5.217 0.3897-9.39-15.96 2.472-13.17 13.52" fill="none"/>
   <path d="m151.7 117.2 10.72-13.67-4.727-12.14 4.728-10.18 16.58-2.351-5.348 10.06" fill="none"/>
   <path d="m111.8 92.1-1.282-12.56-4.323-9.016 7.485-7.887 7.908 8.567 1.732 12.6 1.729 8.367" fill="none"/>
   <path d="m110.5 79.55 12.8 4.269 18.94 0.8637-8.028 14.59" fill="none"/>
   <path d="m157.7 91.4-15.51-6.718 20.24-3.467-5.885-11.62 15.63-1.177-0.4227-11.52" fill="none"/>
   <path d="m142.2 84.68 14.35-15.08 3.13-14.65 12.08 1.954" fill="none"/>
   <path d="m156.6 69.6-9.405-17.52 0.3731-9.141-9.283 4.256 8.91 4.884-1.134 8.88-6.285 7.327 2.47 16.4-12.05-8.809-8.626-4.66 8.755-7.331-9.201-11.55 6.923-6.64 2.278 18.19" fill="none"/>
   <path d="m146 60.96-15.73 2.923 9.447 4.404" fill="none"/>
   <path d="m178.9 84.67 0.158-5.805-6.834-10.44" fill="none"/>
   <path d="m178.9 84.67-5.19 4.258" fill="none"/>
   <path d="m159.7 54.94-4.406-10.29-8.129 7.419" fill="none"/>
   <path d="m111.8 92.1-5.561-4.942 4.279-7.616" fill="none"/>
   <path d="m113.6 62.64 1.176-8.58 6.286-1.731 0.4459 18.88" fill="none"/>
   <path d="m128 45.69 10.23 1.5-7.955 16.69" fill="none"/>
   <path d="m123.3 83.82 6.894-7.945 9.575-7.587 16.82 1.314" fill="none"/>
   <circle cx="128" cy="45.69" r="1.393" stroke-linecap="round"/>
   <circle cx="147.5" cy="42.94" r="1.393" stroke-linecap="round"/>
   <circle cx="171.8" cy="56.9" r="1.393" stroke-linecap="round"/>
   <circle cx="179" cy="78.86" r="1.393" stroke-linecap="round"/>
   <circle cx="173.3" cy="98.32" r="1.393" stroke-linecap="round"/>
   <circle cx="164.6" cy="115.3" r="1.393" stroke-linecap="round"/>
   <circle cx="158.9" cy="133.9" r="1.393" stroke-linecap="round"/>
   <circle cx="136.2" cy="133.5" r="1.393" stroke-linecap="round"/>
   <circle cx="139.7" cy="121" r="1.393" stroke-linecap="round"/>
   <circle cx="134.2" cy="99.27" r="1.393" stroke-linecap="round"/>
   <circle cx="157.7" cy="91.4" r="1.393" stroke-linecap="round"/>
   <circle cx="156.6" cy="69.6" r="1.393" stroke-linecap="round"/>
   <circle cx="147.2" cy="52.08" r="1.393" stroke-linecap="round"/>
   <circle cx="121.5" cy="71.21" r="1.393" stroke-linecap="round"/>
   <circle cx="106.2" cy="70.53" r="1.393" stroke-linecap="round"/>
   <circle cx="111.8" cy="99.4" r="1.393" stroke-linecap="round"/>
   <circle cx="125" cy="92.18" r="1.393" stroke-linecap="round"/>
   <circle cx="130.2" cy="75.87" r="1.393" stroke-linecap="round"/>
   <circle cx="139.7" cy="68.28" r="1.393" stroke-linecap="round"/>
   <circle cx="119.6" cy="113.4" r="1.393" stroke-linecap="round"/>
   <circle cx="134.1" cy="108.9" r="1.393" stroke-linecap="round"/>
   <circle cx="106.2" cy="87.16" r="1.393" stroke-linecap="round"/>
   <circle cx="114.8" cy="54.06" r="1.393" stroke-linecap="round"/>
   <circle cx="155.3" cy="44.66" r="1.393" stroke-linecap="round"/>
   <circle cx="178.9" cy="84.67" r="1.393" stroke-linecap="round"/>
  </g>
 </g>
 <g transform="translate(-104.3 -41.42)">
  <g transform="matrix(.9941 0 0 .9941 .8417 .6109)" fill="#ff0100">
   <circle cx="142.2" cy="84.68" r="11.41"/>
   <circle cx="130.3" cy="63.88" r="6.223"/>
   <circle cx="130.3" cy="63.88" r="6.223"/>
   <circle cx="138.3" cy="47.19" r="5.244"/>
   <circle cx="159.7" cy="54.94" r="8.014"/>
   <circle cx="146" cy="60.96" r="4.258"/>
   <circle cx="172.2" cy="68.42" r="6.223"/>
   <circle cx="162.5" cy="81.21" r="5.244"/>
   <circle cx="173.7" cy="88.93" r="4.258"/>
   <circle cx="121.8" cy="103.1" r="8.014"/>
   <circle cx="110.5" cy="79.55" r="6.223"/>
   <circle cx="111.8" cy="92.1" r="4.258"/>
   <circle cx="123.3" cy="83.82" r="5.244"/>
   <circle cx="121.1" cy="52.33" r="4.258"/>
   <circle cx="113.6" cy="62.64" r="5.244"/>
   <circle cx="162.5" cy="103.5" r="8.014"/>
   <circle cx="144.6" cy="104.9" r="4.258"/>
   <circle cx="151.7" cy="117.2" r="6.223"/>
   <circle cx="127" cy="118.8" r="6.223"/>
   <circle cx="158.8" cy="127.5" r="4.258"/>
   <circle cx="126.5" cy="130.3" r="4.258"/>
   <circle cx="147.4" cy="130.2" r="5.244"/>
  </g>
 </g>
 <g transform="translate(-104.3 -41.42)">
  <g>
   <path d="m130.4 63.62a0.4889 0.4889 0 1 0 0.489 0.4888 0.4898 0.4898 0 0 0-0.489-0.4888zm3.272-1.467c-0.1662-0.2979-0.6189-0.7753-1.776-0.6397-0.3285-0.7829-0.829-1.316-1.496-1.316-0.6666 0-1.167 0.5328-1.496 1.316-1.157-0.1338-1.61 0.3418-1.776 0.6397-0.2502 0.4487-0.2292 1.117 0.3839 1.955-0.6131 0.8383-0.6341 1.507-0.3839 1.955 0.445 0.8001 1.553 0.6664 1.776 0.6397 0.3285 0.7829 0.8289 1.316 1.496 1.316 0.6666 0 1.167-0.5328 1.496-1.316 0.2235 0.02672 1.331 0.1605 1.776-0.6397 0.2502-0.4488 0.2292-1.117-0.3839-1.955 0.6131-0.8383 0.6341-1.507 0.3839-1.955zm-5.726 3.422c-0.061-0.1107-2e-3 -0.3781 0.2292-0.7371 0.1051 0.09928 0.2158 0.1967 0.3343 0.2922 0.0248 0.21 0.0611 0.4144 0.1031 0.613-0.3762 0.01319-0.6093-0.06679-0.6666-0.168zm0.5635-2.488c-0.1184 0.09549-0.2292 0.1929-0.3343 0.2922-0.2311-0.359-0.2903-0.6263-0.2292-0.7371 0.0516-0.09351 0.2502-0.1757 0.5788-0.1757 0.0268 0 0.0593 5e-3 0.0879 5e-3 -0.0438 0.2043-0.0783 0.4086-0.1031 0.6149zm1.891-1.911c0.1451 0 0.34 0.2062 0.5176 0.569-0.1719 0.05723-0.3438 0.1222-0.5176 0.1967-0.1738-0.07438-0.3457-0.1394-0.5176-0.1967 0.1776-0.3628 0.3725-0.569 0.5176-0.569zm0 5.866c-0.1451 0-0.34-0.2062-0.5176-0.569 0.1719-0.05723 0.3438-0.1222 0.5176-0.1967 0.1738 0.07455 0.3457 0.1394 0.5176 0.1967-0.1776 0.3628-0.3725 0.569-0.5176 0.569zm0-1.711a1.222 1.222 0 1 1 1.222-1.222 1.222 1.222 0 0 1-1.222 1.222zm2.454 0.2444c-0.0554 0.1013-0.2903 0.1814-0.6666 0.168 0.042-0.1986 0.0783-0.4029 0.1031-0.613 0.1184-0.09549 0.2292-0.1929 0.3342-0.2922 0.2311 0.359 0.2903 0.6263 0.2292 0.7371zm-0.2292-2.196c-0.105-0.09928-0.2158-0.1967-0.3342-0.2922-0.0248-0.2062-0.0592-0.4106-0.1031-0.6149 0.0287 0 0.0611-5e-3 0.0879-5e-3 0.3285 0 0.5272 0.08213 0.5787 0.1757 0.061 0.1108 2e-3 0.3781-0.2292 0.7371z" stroke-width=".01528"/>
   <path d="m161 98.68c-0.5757 0-1.053 0.3947-1.19 0.9281-0.0145 0-0.027-4e-3 -0.0425-4e-3 -0.6797 0-1.232 0.5526-1.232 1.232 0 0.0926 0.0125 0.1829 0.0326 0.2696-0.5622 0.2311-0.957 0.7818-0.957 1.425 0 0.2426 0.0615 0.4679 0.1598 0.672-0.4621 0.2657-0.776 0.7587-0.776 1.331 0 0.6412 0.3928 1.192 0.9512 1.423-0.0166 0.0886-0.027 0.179-0.027 0.2715 0 0.7664 0.62 1.386 1.386 1.386 0.079 0 0.1559-0.0104 0.2311-0.0231 0.1848 0.5488 0.697 0.9474 1.309 0.9474 0.7664 0 1.386-0.62 1.386-1.386v-7.24c0-0.6797-0.5526-1.232-1.232-1.232zm7.086 5.854c0-0.5719-0.3139-1.065-0.776-1.331 0.1002-0.2041 0.1599-0.4294 0.1599-0.672 0-0.6432-0.3947-1.194-0.957-1.425 0.0187-0.0867 0.0326-0.1771 0.0326-0.2696 0-0.6797-0.5526-1.232-1.232-1.232-0.0145 0-0.0289 4e-3 -0.0425 4e-3 -0.1368-0.5334-0.6142-0.9281-1.19-0.9281-0.6797 0-1.232 0.5507-1.232 1.232v7.24c0 0.7663 0.62 1.386 1.386 1.386 0.6123 0 1.125-0.3986 1.309-0.9474 0.0751 0.0124 0.1522 0.0231 0.2311 0.0231 0.7664 0 1.386-0.62 1.386-1.386 0-0.0926-0.0104-0.1829-0.027-0.2715 0.5584-0.2311 0.9512-0.7818 0.9512-1.423z" stroke-width=".01926"/>
   <path d="m151.7 112.7c-2.42 0-4.382 1.962-4.382 4.382s1.962 4.382 4.382 4.382c2.42 0 4.382-1.962 4.382-4.382s-1.962-4.382-4.382-4.382zm0 7.634c-1.797 0-3.252-1.454-3.252-3.252 0-1.797 1.454-3.252 3.252-3.252 1.797 0 3.252 1.454 3.252 3.252 0 1.797-1.454 3.252-3.252 3.252zm0-5.513c-1.249 0-2.262 1.013-2.262 2.262s1.013 2.262 2.262 2.262 2.262-1.013 2.262-2.262-1.013-2.262-2.262-2.262zm0 3.393c-0.6236 0-1.131-0.5074-1.131-1.131 0-0.6236 0.5074-1.131 1.131-1.131 0.6236 0 1.131 0.5073 1.131 1.131 0 0.6236-0.5073 1.131-1.131 1.131z" stroke-width=".01767"/>
   <path d="m176 87.67v2.652c0 0.244-0.198 0.442-0.442 0.442h-3.831c-0.244 0-0.442-0.198-0.442-0.442v-2.652c0-0.244 0.198-0.442 0.442-0.442h0.8103l0.1133-0.3029c0.0644-0.1722 0.2293-0.2864 0.4134-0.2864h1.156c0.1842 0 0.349 0.1142 0.4135 0.2864l0.1142 0.3029h0.8103c0.244 0 0.442 0.198 0.442 0.442zm-1.252 1.326c0-0.6096-0.4954-1.105-1.105-1.105-0.6096 0-1.105 0.4954-1.105 1.105 0 0.6096 0.4954 1.105 1.105 1.105 0.6096 0 1.105-0.4954 1.105-1.105zm-0.2947 0c0 0.4466-0.3637 0.8103-0.8103 0.8103-0.4466 0-0.8103-0.3637-0.8103-0.8103 0-0.4466 0.3637-0.8103 0.8103-0.8103 0.4466 0 0.8103 0.3637 0.8103 0.8103z" stroke-width=".009208"/>
   <path d="m112.1 80.64h0.6575c0.1096 0 0.2192-0.1096 0.2192-0.2192v-2.301c0-0.1096-0.1096-0.2192-0.2192-0.2192h-0.6575c-0.1096 0-0.2192 0.1096-0.2192 0.2192v2.301c0 0.1096 0.1096 0.2192 0.2192 0.2192zm1.644 0h0.6575c0.1096 0 0.2192-0.1096 0.2192-0.2192v-3.945c0-0.1096-0.1096-0.2192-0.2192-0.2192h-0.6575c-0.1096 0-0.2192 0.1096-0.2192 0.2192v3.945c0 0.1096 0.1096 0.2192 0.2192 0.2192zm-4.932 0h0.6576c0.1096 0 0.2192-0.1096 0.2192-0.2192v-1.206c0-0.1096-0.1096-0.2192-0.2192-0.2192h-0.6576c-0.1096 0-0.2192 0.1096-0.2192 0.2192v1.206c0 0.1096 0.1096 0.2192 0.2192 0.2192zm1.644 0h0.6576c0.1096 0 0.2192-0.1096 0.2192-0.2192v-3.397c0-0.1096-0.1096-0.2192-0.2192-0.2192h-0.6576c-0.1096 0-0.2192 0.1096-0.2192 0.2192v3.397c0 0.1096 0.1096 0.2192 0.2192 0.2192zm4.438 1.096h-7.397v-5.206c0-0.1514-0.1226-0.274-0.274-0.274h-0.5479c-0.1514 0-0.274 0.1226-0.274 0.274v5.754c0 0.3026 0.2454 0.548 0.548 0.548h7.945c0.1514 0 0.274-0.1226 0.274-0.274v-0.548c0-0.1514-0.1226-0.274-0.274-0.274z" stroke-width=".01712"/>
   <path d="m122.6 98.3v0.3607c0 0.2339 0.1575 0.4364 0.3829 0.4993 1.678 0.4687 2.908 2.008 2.908 3.836 0 2.201-1.782 3.983-3.983 3.983-2.201 0-3.983-1.782-3.983-3.983 0-1.829 1.229-3.368 2.908-3.836 0.2253-0.06287 0.3829-0.2655 0.3829-0.4994v-0.3604c0-0.3401-0.3211-0.5878-0.6504-0.503-2.324 0.5986-4.039 2.714-4.025 5.228 0.0163 2.967 2.413 5.346 5.38 5.34 2.96-7e-3 5.357-2.407 5.357-5.369 0-2.503-1.713-4.606-4.031-5.201-0.3271-0.0839-0.6449 0.1666-0.6449 0.5042z" stroke-width=".02165"/>
   <path d="m147.1 83.17-0.2069 0.3607c-0.0757 0.1337-0.2372 0.1892-0.3809 0.1361-0.2976-0.1108-0.57-0.2698-0.8096-0.4691-0.116-0.09585-0.1462-0.2649-0.0706-0.396l0.2067-0.3607c-0.174-0.2018-0.3102-0.4364-0.401-0.6911h-0.4162c-0.1514 0-0.2825-0.1084-0.3077-0.2598-0.0504-0.3027-0.0531-0.6205 0-0.9357 0.0246-0.1514 0.1563-0.2622 0.3077-0.2622h0.4162c0.091-0.2546 0.2271-0.4893 0.401-0.6911l-0.2067-0.3607c-0.0756-0.1312-0.0479-0.3002 0.0706-0.396 0.2396-0.1993 0.5146-0.3582 0.8096-0.4691 0.1438-0.05309 0.3052 0.0025 0.3809 0.1361l0.2069 0.3607c0.2649-0.04793 0.5347-0.04793 0.7996 0l0.2067-0.3607c0.0757-0.1337 0.2372-0.1892 0.3809-0.1361 0.2976 0.1111 0.57 0.2698 0.8096 0.4691 0.116 0.09585 0.1462 0.2649 0.0705 0.396l-0.2069 0.3607c0.174 0.2018 0.3102 0.4364 0.401 0.6911h0.4162c0.1514 0 0.2825 0.1084 0.3077 0.2598 0.0504 0.3027 0.0531 0.6205 0 0.9358-0.0246 0.1514-0.1563 0.2622-0.3077 0.2622h-0.4162c-0.0907 0.2549-0.2271 0.4893-0.401 0.6911l0.2069 0.3607c0.0757 0.1312 0.0479 0.3001-0.0705 0.396-0.2396 0.1993-0.5145 0.3582-0.8096 0.4691-0.1438 0.05309-0.3052-0.0025-0.3809-0.1361l-0.2067-0.3607c-0.2622 0.04793-0.5347 0.04793-0.7996 0zm-0.265-1.483c0.9711 0.7466 2.078-0.3607 1.332-1.332-0.9711-0.7491-2.078 0.3607-1.332 1.332zm-2.908 3.882 0.85 0.4237c0.2546 0.1462 0.3657 0.4565 0.2649 0.734-0.2244 0.6104-0.6659 1.17-1.074 1.66-0.1865 0.2244-0.5095 0.28-0.7642 0.1337l-0.734-0.4237c-0.4036 0.3456-0.8727 0.6205-1.385 0.7996v0.8475c0 0.2926-0.2094 0.5448-0.4969 0.5953-0.6204 0.1059-1.271 0.1111-1.914 0-0.2901-0.05037-0.5045-0.3002-0.5045-0.5953v-0.8475c-0.512-0.1816-0.9812-0.454-1.385-0.7996l-0.734 0.4212c-0.2522 0.1462-0.5776 0.09067-0.7642-0.1337-0.4086-0.4893-0.8399-1.049-1.064-1.657-0.101-0.2749 0.0109-0.5852 0.2649-0.734l0.8399-0.4237c-0.0983-0.5272-0.0983-1.069 0-1.599l-0.8399-0.4263c-0.2549-0.1462-0.3682-0.4565-0.2649-0.7315 0.2244-0.6104 0.6558-1.17 1.064-1.66 0.1865-0.2244 0.5095-0.28 0.7642-0.1337l0.734 0.4237c0.4036-0.3455 0.8727-0.6205 1.385-0.7995v-0.85c0-0.2901 0.207-0.5423 0.4944-0.5927 0.6205-0.1059 1.274-0.1111 1.917-0.0025 0.2901 0.05037 0.5044 0.3002 0.5044 0.5953v0.8475c0.512 0.1816 0.9812 0.454 1.385 0.7996l0.734-0.4237c0.2521-0.1462 0.5776-0.09067 0.7642 0.1337 0.4086 0.4893 0.8374 1.049 1.062 1.66 0.101 0.2749 3e-3 0.5852-0.2521 0.734l-0.85 0.4237c0.0983 0.5297 0.0983 1.072 0 1.602zm-2.966 0.5322c1.493-1.942-0.7239-4.159-2.666-2.666-1.493 1.942 0.7239 4.159 2.666 2.666zm6.139 4.608-0.2069 0.3607c-0.0757 0.1337-0.2372 0.1892-0.3809 0.1361-0.2976-0.1111-0.57-0.2698-0.8096-0.4691-0.116-0.09585-0.1462-0.2649-0.0705-0.396l0.2067-0.3607c-0.174-0.2018-0.3102-0.4363-0.401-0.6911h-0.4162c-0.1514 0-0.2825-0.1084-0.3077-0.2598-0.0504-0.3027-0.0531-0.6205 0-0.9357 0.0246-0.1514 0.1563-0.2622 0.3077-0.2622h0.4162c0.091-0.2546 0.2271-0.4893 0.401-0.6911l-0.2067-0.3607c-0.0756-0.1312-0.0479-0.3002 0.0705-0.396 0.2396-0.1993 0.5146-0.3582 0.8096-0.4691 0.1438-0.05309 0.3052 0.0025 0.3809 0.1361l0.2069 0.3607c0.2649-0.04792 0.5347-0.04792 0.7996 0l0.2067-0.3607c0.0757-0.1337 0.2372-0.1892 0.3809-0.1361 0.2976 0.1111 0.57 0.2698 0.8096 0.4691 0.116 0.09585 0.1462 0.2649 0.0705 0.396l-0.2069 0.3607c0.174 0.2018 0.3102 0.4364 0.401 0.6911h0.4162c0.1514 0 0.2825 0.1084 0.3077 0.2598 0.0504 0.3027 0.0531 0.6205 0 0.9358-0.0245 0.1514-0.1563 0.2622-0.3077 0.2622h-0.4162c-0.0907 0.2549-0.2271 0.4893-0.401 0.6911l0.2069 0.3607c0.0757 0.1312 0.0479 0.3002-0.0705 0.396-0.2396 0.1993-0.5145 0.3582-0.8096 0.4691-0.1438 0.05283-0.3052-0.0025-0.3809-0.1361l-0.2067-0.3607c-0.2622 0.04793-0.5347 0.04793-0.7996 0zm-0.2649-1.486c0.9711 0.7466 2.078-0.3607 1.332-1.332-0.9711-0.7466-2.078 0.3607-1.332 1.332z" stroke-width=".02522"/>
   <path d="m165.7 82.16-0.5862-0.3385c0.0591-0.3193 0.0591-0.6468 0-0.966l0.5862-0.3385c0.0674-0.03848 0.0977-0.1184 0.0757-0.1927-0.1528-0.4899-0.4128-0.933-0.7527-1.302-0.0523-0.05645-0.1376-0.07027-0.2037-0.03164l-0.5862 0.3385c-0.2463-0.2119-0.5298-0.3757-0.8367-0.483v-0.6757c0-0.0771-0.0536-0.1446-0.1294-0.161-0.505-0.1128-1.022-0.1073-1.503 0-0.0757 0.01649-0.1294 0.08394-0.1294 0.161v0.6771c-0.3055 0.1088-0.589 0.2725-0.8367 0.483l-0.5849-0.3385c-0.0674-0.03848-0.1514-0.02614-0.2037 0.03164-0.3399 0.3674-0.6 0.8106-0.7528 1.302-0.0233 0.07429 9e-3 0.1541 0.0757 0.1927l0.5862 0.3385c-0.0592 0.3193-0.0592 0.6468 0 0.9661l-0.5862 0.3385c-0.0674 0.03848-0.0977 0.1184-0.0757 0.1927 0.1528 0.4899 0.4129 0.933 0.7528 1.302 0.0523 0.05645 0.1376 0.07012 0.2037 0.03164l0.5862-0.3385c0.2463 0.2119 0.5298 0.3757 0.8367 0.483v0.6771c0 0.0771 0.0536 0.1446 0.1294 0.161 0.505 0.1129 1.022 0.1073 1.503 0 0.0756-0.01649 0.1294-0.08394 0.1294-0.161v-0.6771c0.3055-0.1087 0.589-0.2725 0.8367-0.483l0.5862 0.3385c0.0674 0.03848 0.1514 0.02614 0.2037-0.03164 0.3399-0.3674 0.6-0.8105 0.7528-1.302 0.0207-0.07577-9e-3 -0.1555-0.0771-0.194zm-3.184 0.2794c-0.6069 0-1.101-0.494-1.101-1.101 0-0.6069 0.494-1.101 1.101-1.101 0.6069 0 1.101 0.494 1.101 1.101 0 0.6069-0.494 1.101-1.101 1.101z" stroke-width=".01376"/>
   <path d="m130.9 121.6h-7.336c-0.4052 0-0.7336-0.3284-0.7336-0.7336v-4.402c0-0.4052 0.3284-0.7336 0.7336-0.7336h7.336c0.4052 0 0.7336 0.3284 0.7336 0.7336v4.402c0 0.4052-0.3284 0.7336-0.7336 0.7336zm-6.113-4.096v-0.6113c0-0.1013-0.0822-0.1834-0.1834-0.1834h-0.6114c-0.1013 0-0.1834 0.0822-0.1834 0.1834v0.6113c0 0.1013 0.0822 0.1834 0.1834 0.1834h0.6114c0.1013 0 0.1834-0.0822 0.1834-0.1834zm1.467 0v-0.6113c0-0.1013-0.0822-0.1834-0.1834-0.1834h-0.6114c-0.1013 0-0.1834 0.0822-0.1834 0.1834v0.6113c0 0.1013 0.0822 0.1834 0.1834 0.1834h0.6114c0.1013 0 0.1834-0.0822 0.1834-0.1834zm1.467 0v-0.6113c0-0.1013-0.0822-0.1834-0.1834-0.1834h-0.6113c-0.1013 0-0.1834 0.0822-0.1834 0.1834v0.6113c0 0.1013 0.0822 0.1834 0.1834 0.1834h0.6113c0.1013 0 0.1834-0.0822 0.1834-0.1834zm1.467 0v-0.6113c0-0.1013-0.0822-0.1834-0.1834-0.1834h-0.6113c-0.1013 0-0.1834 0.0822-0.1834 0.1834v0.6113c0 0.1013 0.0822 0.1834 0.1834 0.1834h0.6113c0.1013 0 0.1834-0.0822 0.1834-0.1834zm1.467 0v-0.6113c0-0.1013-0.0822-0.1834-0.1834-0.1834h-0.6113c-0.1013 0-0.1834 0.0822-0.1834 0.1834v0.6113c0 0.1013 0.0822 0.1834 0.1834 0.1834h0.6113c0.1013 0 0.1834-0.0822 0.1834-0.1834zm-5.135 1.467v-0.6113c0-0.1013-0.0822-0.1834-0.1834-0.1834h-0.6114c-0.1013 0-0.1834 0.0822-0.1834 0.1834v0.6113c0 0.1013 0.0822 0.1834 0.1834 0.1834h0.6114c0.1013 0 0.1834-0.0822 0.1834-0.1834zm1.467 0v-0.6113c0-0.1013-0.0822-0.1834-0.1834-0.1834h-0.6113c-0.1013 0-0.1834 0.0822-0.1834 0.1834v0.6113c0 0.1013 0.0822 0.1834 0.1834 0.1834h0.6113c0.1013 0 0.1834-0.0822 0.1834-0.1834zm1.467 0v-0.6113c0-0.1013-0.0822-0.1834-0.1834-0.1834h-0.6113c-0.1013 0-0.1834 0.0822-0.1834 0.1834v0.6113c0 0.1013 0.0822 0.1834 0.1834 0.1834h0.6113c0.1013 0 0.1834-0.0822 0.1834-0.1834zm1.467 0v-0.6113c0-0.1013-0.0822-0.1834-0.1834-0.1834h-0.6113c-0.1013 0-0.1834 0.0822-0.1834 0.1834v0.6113c0 0.1013 0.0822 0.1834 0.1834 0.1834h0.6113c0.1013 0 0.1834-0.0822 0.1834-0.1834zm-5.135 1.467v-0.6114c0-0.1013-0.0822-0.1834-0.1834-0.1834h-0.6114c-0.1013 0-0.1834 0.0822-0.1834 0.1834v0.6114c0 0.1013 0.0822 0.1834 0.1834 0.1834h0.6114c0.1013 0 0.1834-0.0822 0.1834-0.1834zm4.402 0v-0.6114c0-0.1013-0.0822-0.1834-0.1834-0.1834h-3.546c-0.1013 0-0.1834 0.0822-0.1834 0.1834v0.6114c0 0.1013 0.0822 0.1834 0.1834 0.1834h3.546c0.1013 0 0.1834-0.0822 0.1834-0.1834zm1.467 0v-0.6114c0-0.1013-0.0822-0.1834-0.1834-0.1834h-0.6113c-0.1013 0-0.1834 0.0822-0.1834 0.1834v0.6114c0 0.1013 0.0822 0.1834 0.1834 0.1834h0.6113c0.1013 0 0.1834-0.0822 0.1834-0.1834z" stroke-width=".01528"/>
   <path d="m165.1 55.03v-0.27c0-0.1492-0.1208-0.27-0.27-0.27h-4.726v-0.6751h1.215c0.2982 0 0.5401-0.2419 0.5401-0.5401v-2.16c0-0.2982-0.2419-0.5401-0.5401-0.5401h-3.24c-0.2982 0-0.5401 0.2419-0.5401 0.5401v2.16c0 0.2982 0.2418 0.5401 0.5401 0.5401h1.215v0.6751h-4.726c-0.1492 0-0.27 0.1208-0.27 0.27v0.27c0 0.1492 0.1208 0.27 0.27 0.27h1.755v0.6751h-0.9451c-0.2982 0-0.5401 0.2418-0.5401 0.5401v2.16c0 0.2982 0.2418 0.5401 0.5401 0.5401h2.7c0.2982 0 0.5401-0.2419 0.5401-0.5401v-2.16c0-0.2982-0.2418-0.5401-0.5401-0.5401h-0.9451v-0.6751h5.131v0.6751h-0.9452c-0.2982 0-0.5401 0.2418-0.5401 0.5401v2.16c0 0.2982 0.2418 0.5401 0.5401 0.5401h2.7c0.2982 0 0.5401-0.2419 0.5401-0.5401v-2.16c0-0.2982-0.2418-0.5401-0.5401-0.5401h-0.9451v-0.6751h1.755c0.1492 0 0.27-0.1208 0.27-0.27zm-6.481-2.295v-1.08h2.16v1.08zm-1.08 5.401h-1.62v-1.08h1.62zm5.941 0h-1.62v-1.08h1.62z" stroke-width=".01688"/>
  </g>
 </g>
</svg>
